<svg width="194" height="47" viewBox="0 0 194 47" fill="none" xmlns="http://www.w3.org/2000/svg">
<g clip-path="url(#clip0_2002_875)">
<path d="M70.5106 15.0557L64.2649 27.0973V33.5286H60.5604V27.0973L54.2879 15.0557H58.4689L62.4394 23.498L66.3832 15.0557H70.5106Z" fill="#681616"/>
<path d="M83.7941 27.3095H73.0766C73.1646 28.3676 73.5359 29.1981 74.1884 29.797C74.8409 30.3979 75.6445 30.6964 76.5975 30.6964C77.9733 30.6964 78.953 30.1051 79.5347 28.9225H83.5301C83.1072 30.3347 82.2939 31.4943 81.0961 32.4032C79.8963 33.3121 78.4229 33.7656 76.6759 33.7656C75.2637 33.7656 73.9989 33.4518 72.8776 32.8261C71.7563 32.2004 70.8838 31.3144 70.258 30.1663C69.6323 29.0201 69.3185 27.696 69.3185 26.1958C69.3185 24.6956 69.6266 23.3466 70.2446 22.2004C70.8627 21.0542 71.7276 20.1721 72.8374 19.5541C73.9492 18.936 75.2274 18.6279 76.674 18.6279C78.1206 18.6279 79.3165 18.9283 80.4187 19.5273C81.5209 20.1262 82.3762 20.9777 82.9866 22.0818C83.5951 23.184 83.8994 24.4507 83.8994 25.8801C83.8994 26.4101 83.863 26.8866 83.7941 27.3095ZM80.0628 24.8219C80.0456 23.869 79.7011 23.1055 79.0314 22.5334C78.3617 21.9593 77.5408 21.6742 76.5707 21.6742C75.6541 21.6742 74.881 21.9517 74.2553 22.5085C73.6296 23.0634 73.245 23.8365 73.1034 24.8238H80.0628V24.8219Z" fill="#681616"/>
<path d="M91.3753 19.3173C92.1426 18.8772 93.0209 18.6553 94.0083 18.6553V22.5454H93.0286C91.8652 22.5454 90.9869 22.819 90.3956 23.3663C89.8044 23.9136 89.5097 24.8665 89.5097 26.2251V33.5289H85.8051V18.8677H89.5097V21.1428C89.9861 20.3659 90.608 19.7574 91.3753 19.3173Z" fill="#681616"/>
<path d="M110.072 18.8672V33.5284H106.341V31.6761C105.864 32.3114 105.242 32.8089 104.475 33.1706C103.708 33.5322 102.873 33.714 101.974 33.714C100.828 33.714 99.8137 33.471 98.9316 32.9869C98.0495 32.5009 97.3568 31.7871 96.8536 30.8438C96.3503 29.9004 96.0996 28.7753 96.0996 27.4703V18.8691H99.8042V26.9402C99.8042 28.1036 100.095 29.0011 100.677 29.6268C101.258 30.2525 102.053 30.5663 103.059 30.5663C104.066 30.5663 104.885 30.2525 105.466 29.6268C106.048 29.0011 106.339 28.1056 106.339 26.9402V18.8691H110.07L110.072 18.8672Z" fill="#681616"/>
<path d="M114.783 33.1169C113.83 32.6844 113.076 32.0989 112.521 31.3565C111.966 30.616 111.66 29.7951 111.609 28.8957H115.34C115.411 29.4602 115.688 29.9271 116.174 30.2983C116.66 30.6695 117.263 30.8532 117.986 30.8532C118.71 30.8532 119.243 30.7116 119.639 30.4303C120.036 30.1491 120.235 29.7855 120.235 29.3454C120.235 28.8689 119.992 28.5111 119.507 28.2738C119.021 28.0346 118.25 27.7763 117.192 27.4931C116.098 27.2291 115.202 26.9554 114.506 26.6722C113.809 26.391 113.208 25.9585 112.707 25.3749C112.204 24.7932 111.953 24.0086 111.953 23.0194C111.953 22.208 112.186 21.4675 112.655 20.7959C113.122 20.1262 113.794 19.5961 114.666 19.2077C115.539 18.8192 116.566 18.626 117.749 18.626C119.496 18.626 120.889 19.0623 121.93 19.9367C122.971 20.8093 123.545 21.988 123.65 23.469H120.104C120.051 22.8873 119.81 22.4243 119.377 22.0798C118.945 21.7354 118.367 21.5632 117.644 21.5632C116.974 21.5632 116.457 21.6876 116.096 21.9344C115.734 22.1813 115.552 22.5257 115.552 22.9658C115.552 23.4595 115.799 23.8345 116.293 24.0909C116.786 24.3473 117.554 24.6076 118.595 24.8716C119.653 25.1357 120.527 25.4093 121.214 25.6925C121.903 25.9757 122.498 26.412 123 27.0033C123.503 27.5945 123.763 28.3752 123.78 29.3454C123.78 30.1931 123.547 30.9508 123.078 31.6205C122.611 32.2903 121.939 32.8165 121.067 33.1954C120.194 33.5742 119.174 33.7637 118.011 33.7637C116.848 33.7637 115.736 33.5474 114.783 33.115V33.1169Z" fill="#681616"/>
<path d="M125.434 22.2004C126.025 21.0542 126.827 20.1721 127.841 19.5541C128.855 18.936 129.988 18.6279 131.241 18.6279C132.336 18.6279 133.292 18.848 134.113 19.29C134.934 19.732 135.591 20.2869 136.084 20.9567V18.8652H139.816V33.5264H136.084V31.3833C135.608 32.0722 134.951 32.6405 134.113 33.0901C133.275 33.5398 132.309 33.7656 131.216 33.7656C129.98 33.7656 128.857 33.448 127.843 32.8127C126.829 32.1774 126.025 31.2819 125.436 30.1261C124.844 28.9704 124.55 27.6424 124.55 26.1442C124.55 24.6459 124.844 23.3485 125.436 22.2004H125.434ZM135.556 23.8805C135.202 23.2375 134.728 22.742 134.127 22.3975C133.526 22.0531 132.883 21.8809 132.194 21.8809C131.505 21.8809 130.87 22.0493 130.288 22.3841C129.707 22.719 129.234 23.2088 128.872 23.8518C128.511 24.4966 128.331 25.2582 128.331 26.1403C128.331 27.0224 128.511 27.7936 128.872 28.4557C129.234 29.1177 129.71 29.6248 130.302 29.9769C130.893 30.3309 131.522 30.5069 132.194 30.5069C132.866 30.5069 133.526 30.3347 134.127 29.9903C134.726 29.6459 135.202 29.1522 135.556 28.5073C135.908 27.8644 136.086 27.0913 136.086 26.192C136.086 25.2926 135.91 24.5215 135.556 23.8767V23.8805Z" fill="#681616"/>
<path d="M145.824 13.9438V33.5266H142.119V13.9438H145.824Z" fill="#681616"/>
<path d="M148.405 16.4982C147.973 16.083 147.757 15.5682 147.757 14.9502C147.757 14.3321 147.973 13.8174 148.405 13.4022C148.838 12.9869 149.379 12.7803 150.034 12.7803C150.688 12.7803 151.23 12.9869 151.66 13.4022C152.093 13.8174 152.309 14.3321 152.309 14.9502C152.309 15.5682 152.093 16.083 151.66 16.4982C151.228 16.9134 150.686 17.1201 150.034 17.1201C149.381 17.1201 148.838 16.9134 148.405 16.4982ZM151.857 18.8671V33.5283H148.153V18.8671H151.857Z" fill="#681616"/>
<path d="M176.746 20.308C177.848 21.4102 178.399 22.9505 178.399 24.9253V33.5265H174.695V25.4285C174.695 24.2823 174.404 23.404 173.822 22.7956C173.24 22.1871 172.446 21.8828 171.44 21.8828C170.433 21.8828 169.635 22.1871 169.044 22.7956C168.453 23.404 168.158 24.2823 168.158 25.4285V33.5265H164.454V25.4285C164.454 24.2823 164.163 23.404 163.581 22.7956C162.999 22.1871 162.205 21.8828 161.199 21.8828C160.192 21.8828 159.368 22.1871 158.778 22.7956C158.187 23.404 157.892 24.2823 157.892 25.4285V33.5265H154.188V18.8652H157.892V20.639C158.369 20.021 158.981 19.5369 159.731 19.1829C160.481 18.8308 161.306 18.6528 162.205 18.6528C163.351 18.6528 164.375 18.8958 165.274 19.38C166.174 19.866 166.87 20.5568 167.366 21.458C167.842 20.6103 168.535 19.933 169.444 19.4201C170.353 18.9092 171.336 18.6528 172.395 18.6528C174.193 18.6528 175.646 19.2039 176.748 20.3061L176.746 20.308Z" fill="#681616"/>
<path d="M182.835 11.8657V10.2124H185.925V19.5579H184.078V11.8657H182.835Z" fill="#681616"/>
<path d="M187.462 12.5446C187.462 12.0835 187.578 11.6625 187.814 11.2817C188.049 10.9009 188.403 10.5986 188.878 10.3709C189.352 10.1451 189.93 10.0303 190.615 10.0303C191.3 10.0303 191.878 10.1432 192.352 10.3709C192.827 10.5967 193.181 10.9009 193.416 11.2817C193.652 11.6625 193.768 12.0835 193.768 12.5446C193.768 13.0058 193.654 13.4267 193.422 13.7807C193.191 14.1347 192.884 14.4103 192.5 14.6074C192.971 14.8121 193.338 15.1125 193.602 15.5048C193.866 15.8971 194 16.364 194 16.9016C194 17.4833 193.853 17.9885 193.558 18.421C193.263 18.8534 192.86 19.1844 192.347 19.4141C191.834 19.6456 191.256 19.7604 190.617 19.7604C189.978 19.7604 189.402 19.6456 188.893 19.4141C188.384 19.1825 187.982 18.8515 187.687 18.421C187.393 17.9904 187.245 17.4833 187.245 16.9016C187.245 16.364 187.377 15.8951 187.643 15.4971C187.907 15.0991 188.275 14.8025 188.746 14.6054C187.89 14.1615 187.464 13.4727 187.464 12.5408L187.462 12.5446ZM189.431 15.7612C189.126 16.01 188.975 16.364 188.975 16.8251C188.975 17.2518 189.123 17.6001 189.417 17.8699C189.712 18.1397 190.112 18.2736 190.615 18.2736C191.118 18.2736 191.516 18.1378 191.807 17.8641C192.098 17.5905 192.243 17.2442 192.243 16.8251C192.243 16.3716 192.094 16.0195 191.796 15.7669C191.497 15.5144 191.103 15.3881 190.617 15.3881C190.131 15.3881 189.735 15.5124 189.431 15.7593V15.7612ZM191.648 11.8251C191.396 11.5936 191.051 11.4788 190.617 11.4788C190.183 11.4788 189.85 11.5936 189.597 11.8251C189.344 12.0567 189.218 12.3858 189.218 12.8125C189.218 13.1971 189.348 13.5052 189.609 13.7348C189.869 13.9663 190.206 14.0811 190.615 14.0811C191.025 14.0811 191.363 13.9644 191.627 13.7291C191.891 13.4937 192.025 13.1837 192.025 12.7991C192.025 12.38 191.899 12.0548 191.646 11.8251H191.648Z" fill="#681616"/>
<path d="M23.4939 0C10.5185 0 0 10.5185 0 23.4939C0 36.4694 10.5185 46.9879 23.4939 46.9879C36.4694 46.9879 46.9879 36.4694 46.9879 23.4939C46.9879 10.5185 36.4694 0 23.4939 0ZM44.5979 19.7109C44.8581 21.1155 43.8268 22.4281 42.4031 22.5085L42.3419 22.5123L30.1644 23.0844C29.3129 23.1246 29.0928 21.9229 29.9041 21.6589L41.2014 17.9735C41.2321 17.9639 41.2646 17.9544 41.2971 17.9448L41.6741 17.8472C43.0059 17.5009 44.3511 18.3562 44.6017 19.709L44.5979 19.7109ZM38.3216 12.1947L38.6412 11.9747C39.774 11.194 41.3316 11.5365 42.03 12.7228C42.7552 13.9532 42.2347 15.5395 40.924 16.104L40.8666 16.1289L29.619 20.8323C28.8326 21.1614 28.2164 20.107 28.8862 19.5827L38.2413 12.256C38.268 12.2349 38.2929 12.2158 38.3216 12.1966V12.1947ZM33.5628 7.80516L33.7885 7.48752C34.5846 6.36621 36.167 6.15572 37.229 7.03211C38.3312 7.94102 38.3848 9.60959 37.3457 10.5874L37.2998 10.6295L28.3389 18.8958C27.7132 19.4737 26.7718 18.6949 27.2233 17.9716L33.5092 7.88744C33.5264 7.85874 33.5455 7.83195 33.5647 7.80516H33.5628ZM27.5888 5.30613L27.6921 4.93108C28.0576 3.60503 29.4717 2.86642 30.769 3.32566C32.1142 3.80212 32.738 5.35205 32.0951 6.62644L32.0664 6.68193L26.4732 17.5142C26.0829 18.2701 24.9329 17.8606 25.1089 17.0282L27.5659 5.4018C27.5735 5.36928 27.5812 5.33675 27.5888 5.30613ZM23.4327 2.0551C24.8602 2.0417 25.9757 3.28548 25.8073 4.70338L25.7997 4.76461L24.2498 16.8579C24.1407 17.7018 22.9199 17.7113 22.8012 16.8675L21.1346 5.10139C21.1308 5.06886 21.1269 5.03633 21.1231 5.0038L21.0925 4.61536C20.9815 3.24338 22.0588 2.06658 23.4346 2.0551H23.4327ZM16.104 3.36967C17.4415 2.87025 18.913 3.65669 19.2421 5.04589L19.2555 5.10713L21.9344 17.0014C22.122 17.8319 20.9777 18.2567 20.5758 17.5066L14.9846 7.02062C14.9693 6.99192 14.954 6.96131 14.9406 6.9326L14.7779 6.57861C14.2058 5.32718 14.8143 3.85379 16.1021 3.37158L16.104 3.36967ZM9.66508 7.11056C10.75 6.18251 12.4033 6.41979 13.1859 7.61381L13.2204 7.66547L19.8047 17.9256C20.2639 18.6432 19.334 19.4335 18.7006 18.8633L9.86026 10.9222C9.83538 10.8993 9.81242 10.8782 9.78946 10.8534L9.51583 10.5759C8.54951 9.59619 8.61839 8.00225 9.66317 7.10865L9.66508 7.11056ZM4.89664 12.8281C5.5989 11.5862 7.23302 11.2418 8.37729 12.0952L8.42705 12.1316L18.1247 19.5215C18.802 20.0382 18.1993 21.0982 17.409 20.7806L6.38534 16.3413C6.35473 16.3298 6.32411 16.3164 6.29541 16.3011L5.94333 16.1346C4.69955 15.5453 4.21926 14.024 4.89664 12.8262V12.8281ZM2.36891 19.8315C2.60427 18.4232 4.02217 17.541 5.38841 17.9524L5.44773 17.9697L17.0875 21.5977C17.9008 21.8502 17.696 23.0538 16.8445 23.0251L4.96744 22.6233C4.93491 22.6233 4.90238 22.6195 4.86794 22.6175L4.48141 22.5812C3.11135 22.4511 2.13929 21.1882 2.367 19.8296L2.36891 19.8315ZM2.39187 27.2769C2.13164 25.8724 3.16301 24.5597 4.58665 24.4794L4.64789 24.4756L16.8254 23.9034C17.6769 23.8632 17.8969 25.0649 17.0856 25.329L5.78833 29.0144C5.75772 29.0239 5.72519 29.0335 5.69266 29.0431L5.3157 29.1407C3.9839 29.487 2.63871 28.6317 2.38805 27.2788L2.39187 27.2769ZM8.66623 34.7931L8.34668 35.0132C7.21389 35.7939 5.6563 35.4514 4.95787 34.265C4.23266 33.0346 4.75313 31.4483 6.06388 30.8839L6.12128 30.859L17.3688 26.1556C18.1553 25.8265 18.7714 26.8808 18.1017 27.4051L8.7466 34.7319C8.71981 34.7529 8.69493 34.7721 8.66623 34.7912V34.7931ZM13.4251 39.1846L13.1993 39.5023C12.4033 40.6236 10.8208 40.834 9.75884 39.9577C8.65666 39.0488 8.60309 37.3802 9.64212 36.4024L9.68804 36.3603L18.649 28.094C19.2747 27.5161 20.2161 28.2949 19.7645 29.0182L13.4787 39.1023C13.4615 39.131 13.4423 39.1578 13.4232 39.1846H13.4251ZM19.399 41.6817L19.2957 42.0568C18.9302 43.3828 17.5162 44.1214 16.2188 43.6622C14.8736 43.1857 14.2498 41.6358 14.8928 40.3614L14.9215 40.3059L20.5146 29.4736C20.905 28.7178 22.055 29.1273 21.8789 29.9596L19.422 41.5861C19.4144 41.6186 19.4067 41.6511 19.399 41.6817ZM23.5552 44.9328C22.1277 44.9462 21.0121 43.7024 21.1805 42.2845L21.1882 42.2232L22.74 30.1299C22.8491 29.2861 24.068 29.2765 24.1885 30.1204L25.8552 41.8865C25.859 41.919 25.8628 41.9515 25.8667 41.9841L25.8973 42.3725C26.0083 43.7445 24.931 44.9213 23.5552 44.9328ZM30.8858 43.6201C29.5482 44.1195 28.0768 43.3331 27.7476 41.9439L27.7342 41.8826L25.0553 29.9883C24.8678 29.1579 26.0121 28.7331 26.4139 29.4832L32.0052 39.9691C32.0205 39.9979 32.0358 40.0285 32.0492 40.0572L32.2118 40.4112C32.784 41.6626 32.1755 43.136 30.8877 43.6182L30.8858 43.6201ZM37.3228 39.8773C36.2378 40.8053 34.5846 40.5681 33.8019 39.3741L33.7675 39.3224L27.1832 29.0622C26.7239 28.3446 27.6539 27.5544 28.2872 28.1246L37.1276 36.0656C37.1525 36.0886 37.1754 36.1096 37.1984 36.1345L37.472 36.412C38.4384 37.3917 38.3695 38.9856 37.3247 39.8792L37.3228 39.8773ZM42.0912 34.1598C41.389 35.4016 39.7548 35.7461 38.6106 34.8926L38.5608 34.8563L28.8632 27.4664C28.1858 26.9497 28.7886 25.8896 29.5789 26.2073L40.6025 30.6466C40.6331 30.6581 40.6637 30.6715 40.6925 30.6868L41.0445 30.8532C42.2883 31.4426 42.7686 32.9638 42.0912 34.1617V34.1598ZM44.6189 27.1564C44.3836 28.5647 42.9657 29.4468 41.5994 29.0354L41.5401 29.0182L29.9003 25.3902C29.0871 25.1376 29.2918 23.934 30.1433 23.9627L42.0204 24.3646C42.0529 24.3646 42.0855 24.3684 42.1199 24.3703L42.5064 24.4067C43.8765 24.5368 44.8486 25.7997 44.6209 27.1583L44.6189 27.1564Z" fill="#681616"/>
</g>
<defs>
<clipPath id="clip0_2002_875">
<rect width="194" height="46.9879" fill="white"/>
</clipPath>
</defs>
</svg>
